<svg width="24" height="24" viewBox="0 0 24 24" fill="none" xmlns="http://www.w3.org/2000/svg">
<path fill-rule="evenodd" clip-rule="evenodd" d="M22.4492 8.5C22.4963 9.41914 22.5 10.5478 22.5 12C22.5 15.2616 22.4996 16.8923 21.9668 18.1787C21.2563 19.8939 19.8939 21.2563 18.1787 21.9668C16.8923 22.4996 15.2616 22.5 12 22.5C8.73841 22.5 7.10769 22.4996 5.82129 21.9668C4.10614 21.2563 2.74366 19.8939 2.0332 18.1787C1.50036 16.8923 1.5 15.2616 1.5 12C1.5 10.5478 1.50367 9.41914 1.55078 8.5H22.4492ZM11.0039 11.877C10.3373 11.4882 9.5 11.9695 9.5 12.7412V16.2588C9.5 17.0305 10.3373 17.5118 11.0039 17.123L14.0195 15.3643C14.681 14.9784 14.681 14.0216 14.0195 13.6357L11.0039 11.877Z" fill="#FEFEFE"/>
<path d="M1.81055 6.5C1.87225 6.26038 1.94435 6.0358 2.0332 5.82129C2.74366 4.10614 4.10614 2.74366 5.82129 2.0332C6.17842 1.88527 6.56226 1.77938 7 1.70215V6.5H1.81055Z" fill="#FEFEFE"/>
<path d="M9.5 1.51562C10.2128 1.50178 11.035 1.5 12 1.5C12.7471 1.5 13.4086 1.50138 14 1.50781V6.5H9.5V1.51562Z" fill="#FEFEFE"/>
<path d="M16.5 1.62793C17.1554 1.70589 17.6917 1.83149 18.1787 2.0332C19.8939 2.74366 21.2563 4.10614 21.9668 5.82129C22.0556 6.0358 22.1277 6.26038 22.1895 6.5H16.5V1.62793Z" fill="#FEFEFE"/>
</svg>
