<svg width="24" height="24" viewBox="0 0 24 24" fill="none" xmlns="http://www.w3.org/2000/svg">
<path d="M14.0192 13.6362C14.6807 14.0221 14.6807 14.9779 14.0192 15.3638L11.0039 17.1227C10.3372 17.5116 9.5 17.0308 9.5 16.259L9.5 12.741C9.5 11.9692 10.3372 11.4884 11.0039 11.8773L14.0192 13.6362Z" fill="white" fill-opacity="0.6"/>
<path fill-rule="evenodd" clip-rule="evenodd" d="M12.4004 1C14.0637 1 15.3713 0.999153 16.4219 1.08496C17.4841 1.17175 18.3716 1.35201 19.1777 1.7627C20.4949 2.43381 21.5662 3.50513 22.2373 4.82227C22.648 5.6284 22.8283 6.51589 22.915 7.57813C23.0008 8.62866 23 9.93632 23 11.5996V12.4004C23 14.0637 23.0008 15.3713 22.915 16.4219C22.8283 17.4841 22.648 18.3716 22.2373 19.1777C21.5662 20.4949 20.4949 21.5662 19.1777 22.2373C18.3716 22.648 17.4841 22.8283 16.4219 22.915C15.3713 23.0008 14.0637 23 12.4004 23H11.5996C9.93632 23 8.62866 23.0008 7.57813 22.915C6.51589 22.8283 5.6284 22.648 4.82227 22.2373C3.50513 21.5662 2.43381 20.4949 1.7627 19.1777C1.35201 18.3716 1.17175 17.4841 1.08496 16.4219C0.999153 15.3713 1 14.0637 1 12.4004V11.5996C1 9.93632 0.999153 8.62866 1.08496 7.57813C1.17175 6.51589 1.35201 5.6284 1.7627 4.82227C2.43381 3.50513 3.50513 2.43381 4.82227 1.7627C5.6284 1.35201 6.51589 1.17175 7.57813 1.08496C8.62866 0.999153 9.93632 1 11.5996 1H12.4004ZM3.0332 8.5C3.00009 9.32253 3 10.3244 3 11.5996V12.4004C3 14.0968 3.00048 15.3095 3.07813 16.2598C3.15481 17.198 3.30188 17.7924 3.54492 18.2695C4.02429 19.2103 4.78966 19.9757 5.73047 20.4551C6.20761 20.6981 6.80202 20.8452 7.74023 20.9219C8.69051 20.9995 9.90316 21 11.5996 21H12.4004C14.0968 21 15.3095 20.9995 16.2598 20.9219C17.198 20.8452 17.7924 20.6981 18.2695 20.4551C19.2103 19.9757 19.9757 19.2103 20.4551 18.2695C20.6981 17.7924 20.8452 17.198 20.9219 16.2598C20.9995 15.3095 21 14.0968 21 12.4004V11.5996C21 10.3244 20.9999 9.32253 20.9668 8.5H3.0332ZM7.74023 3.07813C6.80202 3.15481 6.20761 3.30188 5.73047 3.54492C4.78966 4.02429 4.02429 4.78966 3.54492 5.73047C3.4313 5.95353 3.33991 6.20254 3.26563 6.5H8V3.05957C7.91124 3.06531 7.82469 3.07122 7.74023 3.07813ZM16 6.5H20.7344C20.6601 6.20254 20.5687 5.95353 20.4551 5.73047C19.9757 4.78966 19.2103 4.02429 18.2695 3.54492C17.7924 3.30188 17.198 3.15481 16.2598 3.07813C16.1753 3.07122 16.0888 3.06531 16 3.05957V6.5ZM11.5996 3C11.0113 3 10.4812 3.00059 10 3.00391V6.5H14V3.00391C13.5188 3.00059 12.9887 3 12.4004 3H11.5996Z" fill="white" fill-opacity="0.6"/>
</svg>
