<svg width="24" height="24" viewBox="0 0 24 24" fill="none" xmlns="http://www.w3.org/2000/svg">
<path d="M21 12.0762C21 10.8913 20.9918 10.4865 20.8926 10.126C20.7971 9.77956 20.6396 9.45307 20.4287 9.16212C20.2092 8.85936 19.899 8.59965 18.9736 7.85939L15.373 4.97951C14.6483 4.39974 14.1459 3.99814 13.7275 3.71095C13.3198 3.43113 13.0472 3.2999 12.7998 3.23146C12.2764 3.08665 11.7236 3.08665 11.2002 3.23146C10.9528 3.2999 10.6802 3.43113 10.2725 3.71095C9.85405 3.99814 9.35166 4.39974 8.62695 4.97951L5.02636 7.85939C4.10103 8.59965 3.79075 8.85936 3.57128 9.16212C3.3604 9.45307 3.20285 9.77956 3.10741 10.126C3.00817 10.4865 2.99999 10.8913 2.99999 12.0762V15.5996C2.99999 16.7361 3.0004 17.5287 3.05077 18.1455C3.10022 18.7507 3.19296 19.099 3.32714 19.3623C3.61472 19.9265 4.07347 20.3853 4.63769 20.6729C4.90104 20.8071 5.24932 20.8998 5.85449 20.9492C6.47129 20.9996 7.26395 21 8.40038 21H15.5996C16.736 21 17.5287 20.9996 18.1455 20.9492C18.7507 20.8998 19.0989 20.8071 19.3623 20.6729C19.9265 20.3853 20.3853 19.9265 20.6728 19.3623C20.807 19.099 20.8998 18.7507 20.9492 18.1455C20.9996 17.5287 21 16.7361 21 15.5996V12.0762ZM23 15.5996C23 16.7032 23.001 17.5914 22.9424 18.3086C22.8828 19.0373 22.7567 19.6774 22.4551 20.2695C21.9757 21.2104 21.2103 21.9757 20.2695 22.4551C19.6773 22.7568 19.0373 22.8829 18.3086 22.9424C17.5914 23.001 16.7032 23 15.5996 23H8.40038C7.2968 23 6.40857 23.001 5.6914 22.9424C4.96269 22.8829 4.32265 22.7568 3.73046 22.4551C2.78965 21.9757 2.02428 21.2104 1.54491 20.2695C1.24326 19.6774 1.11715 19.0373 1.05761 18.3086C0.999018 17.5914 0.999993 16.7032 0.999993 15.5996V12.0762C0.999993 11.0023 0.991729 10.2771 1.17968 9.59474C1.33876 9.01729 1.60061 8.47325 1.95214 7.9883C2.36756 7.41523 2.93874 6.96874 3.77734 6.29787L7.37695 3.41798C8.07905 2.8563 8.6478 2.40078 9.14062 2.06251C9.64374 1.7172 10.1234 1.45412 10.667 1.30373C11.5393 1.06241 12.4607 1.06241 13.333 1.30373C13.8766 1.45412 14.3562 1.7172 14.8594 2.06251C15.3522 2.40078 15.9209 2.8563 16.623 3.41798L20.2226 6.29787C21.0612 6.96874 21.6324 7.41523 22.0478 7.9883C22.3994 8.47325 22.6612 9.01729 22.8203 9.59474C23.0083 10.2771 23 11.0023 23 12.0762V15.5996Z" fill="white" fill-opacity="0.6"/>
<path d="M9.99999 15H14C14.5523 15 15 15.4477 15 16C15 16.5523 14.5523 17 14 17H9.99999C9.44771 17 8.99999 16.5523 8.99999 16C8.99999 15.4477 9.44771 15 9.99999 15Z" fill="white" fill-opacity="0.6"/>
</svg>
