<svg width="24" height="24" viewBox="0 0 24 24" fill="none" xmlns="http://www.w3.org/2000/svg">
<path fill-rule="evenodd" clip-rule="evenodd" d="M10.9336 2.26725C11.6314 2.07425 12.3686 2.07425 13.0664 2.26725C13.8576 2.48614 14.5712 3.0574 15.998 4.19889L19.5977 7.07878C20.4795 7.78428 20.9208 8.13707 21.2383 8.57487C21.5195 8.96276 21.7292 9.39816 21.8564 9.86003C22.0001 10.3814 22 10.9465 22 12.0758V15.6003C22 17.8402 22.0003 18.9605 21.5645 19.8161C21.181 20.5686 20.5689 21.1806 19.8164 21.5641C18.9608 22.0001 17.8398 22.0007 15.5996 22.0007H8.40039C6.16018 22.0007 5.03924 22.0001 4.18359 21.5641C3.43113 21.1806 2.81897 20.5686 2.43555 19.8161C1.99971 18.9605 2 17.8402 2 15.6003V12.0758C2 10.9465 1.99991 10.3814 2.14355 9.86003C2.27083 9.39816 2.48054 8.96276 2.76172 8.57487C3.07916 8.13707 3.52047 7.78427 4.40234 7.07878L8.00195 4.19889C9.42883 3.05739 10.1424 2.48614 10.9336 2.26725ZM10 14.9997C9.44788 14.9997 9.00026 15.4476 9 15.9997C9 16.552 9.44772 16.9997 10 16.9997H14C14.5521 16.9997 14.9997 16.5527 15 16.0007C15 15.4484 14.5523 14.9997 14 14.9997H10Z" fill="#FEFEFE"/>
</svg>
